<svg data-name="Layer 1" xmlns="http://www.w3.org/2000/svg" viewBox="0 0 23.09 20.64"><path stroke-width=".5" fill="#fff" stroke="#fff" d="M10.31 20.64a10.46 10.46 0 0 0 7.47-3.18.5.5 0 0 0-.72-.64 9.47 9.47 0 0 1-6.75 2.87A9.32 9.32 0 0 1 3.75 3.72 9.43 9.43 0 0 1 10.35 1a9.28 9.28 0 0 1 6.56 2.72.5.5 0 1 0 .71-.7 10.27 10.27 0 0 0-7.27-3 10.32 10.32 0 0 0 0 20.64z"/><path stroke-width=".5" fill="#fff" stroke="#fff" d="M19.06 5.39a.5.5 0 0 0-.12.7l2.59 3.73h-8.08a.5.5 0 1 0 0 1h8.08l-2.59 3.73a.5.5 0 1 0 .82.57l3.34-4.8-3.34-4.8a.5.5 0 0 0-.7-.13z"/></svg>