<svg version="1.1" id="Layer_1" xmlns="http://www.w3.org/2000/svg" x="0" y="0" viewBox="0 0 17 21.6" xml:space="preserve"><style>.st0{fill:#2c2a29}</style><path class="st0" d="M13.9 16.8H6c-.3 0-.5.2-.5.5s.2.5.5.5h7.9c.3 0 .5-.2.5-.5s-.2-.5-.5-.5zm0-3.2H6c-.3 0-.5.2-.5.5s.2.5.5.5h7.9c.3 0 .5-.2.5-.5s-.2-.5-.5-.5zM5.5 11c0 .3.2.5.5.5h7.9c.3 0 .5-.2.5-.5s-.2-.5-.5-.5H6c-.3 0-.5.2-.5.5zM6 8.3h2.4c.3 0 .5-.2.5-.5s-.3-.5-.5-.5H6c-.3 0-.5.2-.5.5s.2.5.5.5z"/><path class="st0" d="M17 7.7c0-.1-.1-.2-.1-.2L14.4 5V.5c0-.3-.2-.5-.5-.5H.5C.2 0 0 .2 0 .5v17.7c0 .3.2.5.5.5h2.2v2.4c0 .3.2.5.5.5h13.3c.3 0 .5-.2.5-.5V7.7zm-4.4-3.1l.9.9 1.8 1.8h-2.7V4.6zM1 17.7V1h12.3v2.9l-.9-.9s-.1-.1-.2-.1h-9c-.3 0-.5.2-.5.5v14.3H1zm15 2.9H3.7V3.9h7.9v3.9c0 .3.2.5.5.5H16v12.3z"/></svg>