<svg data-name="Layer 1" xmlns="http://www.w3.org/2000/svg" viewBox="0 0 20.73 20.73"><path stroke-width=".5" fill="#fff" stroke="#fff" d="M10.36 0a10.36 10.36 0 1 0 10.36 10.36A10.36 10.36 0 0 0 10.36 0zm0 19.72a9.36 9.36 0 1 1 9.36-9.36 9.36 9.36 0 0 1-9.36 9.36z"/><path fill="none" stroke="#fff" d="M11.19 5.02A3.56 3.56 0 0 0 6.8 8.48a.5.5 0 1 0 1 0 2.54 2.54 0 0 1 1-2 2.62 2.62 0 0 1 2.21-.49 2.56 2.56 0 0 1 .25 4.87 2.09 2.09 0 0 0-1.4 2v1.17a.5.5 0 0 0 1 0v-1.17a1.08 1.08 0 0 1 .75-1 3.56 3.56 0 0 0 2.09-4.58 3.51 3.51 0 0 0-2.51-2.26zm-.82 10.09a.49.49 0 0 0-.49.5.49.49 0 0 0 .5.5.5.5 0 0 0 .5-.5.5.5 0 0 0-.5-.5z"/></svg>