<svg version="1.1" id="Layer_1" xmlns="http://www.w3.org/2000/svg" x="0" y="0" viewBox="0 0 23.8 18.1" xml:space="preserve"><style>.st0{fill:#2c2a29}</style><path class="st0" d="M19.7 0c-1.6 0-3 .9-3.7 2.3H7.9c-.3 0-.5.2-.5.5v2.8H4.7c-.1 0-.3.1-.4.2L.1 10.1c0 .1-.1.2-.1.3v5.3c0 .3.2.5.5.5h1.2c.3 1.3 1.6 2.2 2.9 1.9.9-.2 1.7-.9 1.9-1.9h8.8c.3 1.3 1.6 2.1 2.9 1.9.9-.2 1.7-.9 1.9-1.9h2.4c.3 0 .5-.2.5-.5V6.6c1.4-1.8 1.1-4.3-.7-5.7-.8-.6-1.7-.9-2.6-.9zm0 1c1.7 0 3.1 1.4 3.1 3.1 0 .7-.3 1.5-.8 2-.6.7-1.4 1.1-2.3 1.1-1.7 0-3.1-1.4-3.1-3.1 0-.4.1-.8.2-1.1.5-1.2 1.6-2 2.9-2zM8.4 3.3h7.2c-.1.3-.1.5-.1.8 0 2.3 1.8 4.1 4.1 4.1.3 0 .5 0 .8-.1h.2c.3-.1.5-.1.7-.2.2-.1.3-.2.5-.3v4.1H8.4V3.3zM1 11.5h4.8c.3 0 .5-.2.5-.5V8.7c0-.3-.2-.5-.5-.5s-.5.2-.5.5v1.7H1.2L5 6.5h2.5v8.6h-1c0-.1-.1-.3-.1-.4 0 0 0-.1-.1-.1 0-.1-.1-.2-.1-.3l-.1-.1-.2-.2-.1-.1-.2-.2-.1-.1c-.1 0-.2-.1-.2-.1-.1 0-.1-.1-.2-.1s-.2-.1-.3-.1h-.1c-.3-.1-.6-.1-.9 0h-.1c-.1 0-.2.1-.3.1-.1 0-.1 0-.2.1-.1 0-.2.1-.2.1-.1 0-.1.1-.1.1l-.2.2-.1.1-.2.2-.1.1c-.1.1-.1.2-.1.3 0 0 0 .1-.1.1-.1.1-.1.3-.1.4H1v-3.6zm3.1 5.6c-.8 0-1.4-.6-1.4-1.4 0-.8.6-1.4 1.4-1.4.8 0 1.4.6 1.4 1.4 0 .8-.7 1.4-1.4 1.4zm13.5 0c-.8 0-1.4-.6-1.4-1.4s.6-1.4 1.4-1.4c.8 0 1.4.6 1.4 1.4.1.8-.6 1.4-1.4 1.4zm4.3-1.9H20c0-.1-.1-.3-.1-.4 0 0 0-.1-.1-.1 0-.1-.1-.2-.1-.3l-.1-.1-.2-.2-.1-.1-.2-.2-.1-.1c-.1 0-.2-.1-.2-.1-.1 0-.1-.1-.2-.1s-.2-.1-.3-.1h-.1c-.3-.1-.6-.1-.9 0h-.1c-.1 0-.2.1-.3.1-.1 0-.1 0-.2.1-.1 0-.2.1-.2.1-.1 0-.1.1-.1.1l-.2.2-.1.1-.2.2-.1.1c-.1.1-.1.2-.1.3 0 0 0 .1-.1.1-.1.1-.1.3-.1.4H8.4v-2.5h13.5v2.5z"/><path class="st0" d="M18 4.6h1.1v1.1c0 .3.2.5.5.5s.5-.2.5-.5V4.6h1.1c.3 0 .5-.2.5-.5s-.2-.5-.5-.5h-1.1V2.4c0-.3-.2-.5-.5-.5s-.5.2-.5.5v1.1H18c-.3 0-.5.2-.5.5s.3.6.5.6z"/></svg>