<svg xmlns="http://www.w3.org/2000/svg" viewBox="0 0 18 22"><path fill="#2C2A29" d="M2.115 20h10.77A2.12 2.12 0 0 0 15 17.88V2.12A2.12 2.12 0 0 0 12.885 0H2.115A2.12 2.12 0 0 0 0 2.12v15.76A2.12 2.12 0 0 0 2.115 20zM1 2.118A1.118 1.118 0 0 1 2.115 1h10.771A1.118 1.118 0 0 1 14 2.118v15.764A1.118 1.118 0 0 1 12.885 19H2.115A1.118 1.118 0 0 1 1 17.882V2.118z"/><path d="M3.388 5h8.224a.5.5 0 0 0 0-1H3.388a.5.5 0 0 0 0 1zm0 5h8.224a.5.5 0 0 0 0-1H3.388a.5.5 0 0 0 0 1zm0 5h8.224a.5.5 0 0 0 0-1H3.388a.5.5 0 0 0 0 1z" fill="#2C2A29"/><path fill="#2C2A29" d="M15.885 2H14.08c.056.33.083.665.082 1h1.723A1.118 1.118 0 0 1 17 4.118v15.764A1.118 1.118 0 0 1 15.885 21H5.115a1.105 1.105 0 0 1-1.088-.986A5.405 5.405 0 0 1 3 19.875v.005A2.12 2.12 0 0 0 5.115 22h10.77A2.12 2.12 0 0 0 18 19.88V4.12A2.12 2.12 0 0 0 15.885 2z"/></svg>