<svg xmlns="http://www.w3.org/2000/svg" viewBox="0 0 18.414 20.853"><path fill="#2c2a29" d="M15.004 9.213h-.01v-3.75a.617.617 0 0 0-.012-.059.485.485 0 0 0-.126-.28c-.004-.004-.004-.01-.008-.014L9.887.146C9.88.139 9.87.139 9.863.133A.48.48 0 0 0 9.669.03a.46.46 0 0 0-.082-.017.451.451 0 0 0-.053-.01L2.248 0A2.251 2.251 0 0 0 0 2.248v16.354a2.251 2.251 0 0 0 2.248 2.248l10.498.004a2.251 2.251 0 0 0 2.248-2.248v-2.072h.01a3.414 3.414 0 0 0 3.41-3.41v-.51a3.41 3.41 0 0 0-3.41-3.401zm-4.971-7.504l3.254 3.254h-3.254V1.709zm3.961 16.896a1.25 1.25 0 0 1-1.248 1.248L2.248 19.85A1.25 1.25 0 0 1 1 18.602V2.248A1.25 1.25 0 0 1 2.248 1l6.785.003v4.46a.5.5 0 0 0 .499.5h4.462v3.25h-4.78a3.408 3.408 0 0 0-3.409 3.4v.51a3.413 3.413 0 0 0 3.409 3.41h4.78v2.072zm3.42-5.482a2.413 2.413 0 0 1-2.41 2.41h-5.79a2.412 2.412 0 0 1-2.409-2.41v-.5a2.412 2.412 0 0 1 2.409-2.41h5.79a2.408 2.408 0 0 1 2.41 2.4v.51z"/><path fill="#2c2a29" d="M9.38 11.408H8.243v2.927h.749v-.878h.388a1.025 1.025 0 1 0 0-2.049zm0 1.337h-.388v-.623h.388a.294.294 0 0 1 .297.291v.019a.297.297 0 0 1-.281.313H9.38zm2.782-1.337H10.97v2.927h1.192a1.465 1.465 0 0 0 0-2.927zm0 2.203h-.423v-1.479h.423a.742.742 0 0 1 0 1.479zm2.02.723h.749V13.33h1.028v-.722h-1.028v-.477h1.048v-.724h-1.797z"/></svg>