<svg data-name="Layer 1" xmlns="http://www.w3.org/2000/svg" viewBox="0 0 23.43 23.43"><path stroke-width=".5" fill="#fff" stroke="#fff" d="M22.04 9.41l-1-.34a9.28 9.28 0 0 0-.8-2c.16-.32.34-.67.49-1a2.07 2.07 0 0 0-.39-2.37l-.58-.48a2.09 2.09 0 0 0-2.37-.4l-1 .48a9 9 0 0 0-1.95-.82c-.11-.34-.23-.71-.35-1.05a2.08 2.08 0 0 0-2-1.4h-.79a2.08 2.08 0 0 0-2 1.4l-.34 1a9.28 9.28 0 0 0-2 .8l-1-.49a2.07 2.07 0 0 0-2.37.39l-.37.55a2.09 2.09 0 0 0-.4 2.37c.15.32.32.66.48 1A9 9 0 0 0 2.48 9l-1.05.35a2.08 2.08 0 0 0-1.4 2v.79a2.08 2.08 0 0 0 1.4 2l1 .34a9.28 9.28 0 0 0 .8 2c-.16.32-.34.67-.49 1a2.07 2.07 0 0 0 .39 2.37l.56.56a2.06 2.06 0 0 0 2.37.4l1-.48a9 9 0 0 0 1.95.82c.11.34.23.71.35 1.05a2.08 2.08 0 0 0 2 1.4h.79a2.08 2.08 0 0 0 2-1.4l.34-1a9.28 9.28 0 0 0 2-.8l1 .49a2.07 2.07 0 0 0 2.37-.39l.56-.56a2.09 2.09 0 0 0 .4-2.37c-.15-.32-.32-.66-.48-1a9 9 0 0 0 .82-1.95l1.05-.35a2.08 2.08 0 0 0 1.4-2v-.79a2.08 2.08 0 0 0-1.57-2.07zm.4 2.75a1.06 1.06 0 0 1-.73 1c-.42.15-.89.31-1.28.43a.49.49 0 0 0-.33.35 8.71 8.71 0 0 1-.93 2.2.5.5 0 0 0 0 .49l.59 1.18a1.06 1.06 0 0 1-.21 1.23l-.55.56a1.08 1.08 0 0 1-1.23.2c-.4-.19-.85-.41-1.21-.6a.51.51 0 0 0-.48 0 8.8 8.8 0 0 1-2.22.91.49.49 0 0 0-.35.33c-.12.38-.28.84-.42 1.26a1.08 1.08 0 0 1-1 .72h-.79a1.06 1.06 0 0 1-1-.73c-.15-.42-.31-.89-.43-1.28a.49.49 0 0 0-.35-.33 8.71 8.71 0 0 1-2.2-.93.5.5 0 0 0-.49 0l-1.19.59a1.05 1.05 0 0 1-1.22-.21l-.56-.55a1.1 1.1 0 0 1-.21-1.23c.2-.4.42-.85.61-1.21a.51.51 0 0 0 0-.48 8.42 8.42 0 0 1-.9-2.22.52.52 0 0 0-.34-.35l-1.25-.42a1.07 1.07 0 0 1-.73-1v-.79a1.06 1.06 0 0 1 .73-1c.42-.15.89-.31 1.28-.43a.49.49 0 0 0 .33-.35 8.71 8.71 0 0 1 .93-2.2.5.5 0 0 0 0-.49c-.18-.36-.4-.79-.59-1.19a1.05 1.05 0 0 1 .21-1.22l.55-.56a1.09 1.09 0 0 1 1.23-.21l1.21.61a.51.51 0 0 0 .48 0 8.42 8.42 0 0 1 2.22-.9.52.52 0 0 0 .35-.34c.12-.38.28-.84.42-1.25a1.07 1.07 0 0 1 1-.73h.79a1.06 1.06 0 0 1 1 .73c.15.42.31.89.43 1.28a.49.49 0 0 0 .35.33 8.71 8.71 0 0 1 2.2.93.5.5 0 0 0 .49 0l1.18-.59a1.06 1.06 0 0 1 1.23.21l.56.55a1.1 1.1 0 0 1 .21 1.23c-.2.4-.42.85-.61 1.21a.51.51 0 0 0 0 .48 8.42 8.42 0 0 1 .9 2.22.52.52 0 0 0 .34.35l1.25.42a1.07 1.07 0 0 1 .73 1z"/><path stroke-width=".5" fill="#fff" stroke="#fff" d="M11.72 8.13a3.59 3.59 0 1 0 3.59 3.59 3.61 3.61 0 0 0-3.59-3.59zm0 6.18a2.59 2.59 0 1 1 2.59-2.59 2.6 2.6 0 0 1-2.59 2.59z"/></svg>