<svg xmlns="http://www.w3.org/2000/svg" viewBox="0 0 61.172 68.846"><path d="M61.172 66.844a2.013 2.013 0 0 1-2.117 2H2a1.982 1.982 0 0 1-2-1.965v-.106c0-1.061.868-1.929 1.929-1.929h57.126a2.011 2.011 0 0 1 2.117 2zM29.273 54.06c.373.351.86.554 1.372.571a2.112 2.112 0 0 0 1.371-.571l15.311-15.31a2 2 0 0 0 .029-2.829l-.039-.039a2.01 2.01 0 0 0-2.837 0l-.01.01-11.887 11.886V1.946A1.955 1.955 0 0 0 30.527.003a1.926 1.926 0 0 0-1.943 1.909v45.866L16.697 35.892a2 2 0 0 0-2.829-.029l-.039.039c-.78.78-.78 2.057 0 2.837l.01.01L29.273 54.06z" fill="#2C2A29"/></svg>