<svg xmlns="http://www.w3.org/2000/svg" width="20" height="20" viewBox="0 0 20.392 20.392"><path fill="#2C2A29" stroke="#2C2A29" stroke-width=".25" class="cls-1" d="M10.196.25a9.944 9.944 0 0 0-.288 19.885c.094.01.192.008.288.008a2.787 2.787 0 0 0 .288-.008A9.944 9.944 0 0 0 10.196.25zm-.485 1.04v3.57h-2.8a10.635 10.635 0 0 1 .463-1.137 4.234 4.234 0 0 1 2.338-2.435zm.97 0a4.234 4.234 0 0 1 2.336 2.432 10.635 10.635 0 0 1 .462 1.137h-2.8zm-3.084.317a7.685 7.685 0 0 0-1.092 1.69 11.95 11.95 0 0 0-.622 1.562h-2.9a8.985 8.985 0 0 1 4.614-3.253zm5.2 0a8.985 8.985 0 0 1 4.617 3.25h-2.9a11.95 11.95 0 0 0-.622-1.56 7.685 7.685 0 0 0-1.094-1.69zM2.357 5.829h3.254a18.1 18.1 0 0 0-.5 3.88H1.236a8.906 8.906 0 0 1 1.12-3.88zm4.26 0h3.094v3.88H6.088a17.066 17.066 0 0 1 .53-3.88zm4.064 0h3.093a17.066 17.066 0 0 1 .53 3.88h-3.622zm4.1 0h3.252a8.906 8.906 0 0 1 1.122 3.88h-3.87a18.1 18.1 0 0 0-.5-3.88zm-13.544 4.85h3.874a18.147 18.147 0 0 0 .5 3.882H2.35a8.94 8.94 0 0 1-1.114-3.88zm4.852 0h3.624v3.882h-3.1a17.14 17.14 0 0 1-.525-3.88zm4.594 0h3.624a17.14 17.14 0 0 1-.523 3.882h-3.1zm4.6 0h3.874a8.94 8.94 0 0 1-1.114 3.882h-3.26a18.148 18.148 0 0 0 .5-3.88zm-12.31 4.853h2.9a11.8 11.8 0 0 0 .628 1.57 7.72 7.72 0 0 0 1.084 1.682 8.982 8.982 0 0 1-4.612-3.252zm3.933 0h2.8v3.57a4.213 4.213 0 0 1-2.335-2.425 10.448 10.448 0 0 1-.464-1.145zm3.775 0h2.8a10.447 10.447 0 0 1-.47 1.145 4.213 4.213 0 0 1-2.335 2.426zm3.836 0h2.9a8.982 8.982 0 0 1-4.617 3.252 7.72 7.72 0 0 0 1.083-1.683 11.8 11.8 0 0 0 .634-1.57z"/></svg>