<svg xmlns="http://www.w3.org/2000/svg" viewBox="0 0 137.832 41.829"><path d="M16.225 1.118V40.71h15.8a30.288 30.288 0 0 0 8.455-1.173 21.027 21.027 0 0 0 7.176-3.607 17.6 17.6 0 0 0 4.978-6.235 20.25 20.25 0 0 0 1.864-9 20.393 20.393 0 0 0-1.947-9.45 16.383 16.383 0 0 0-5.2-6.013 20.642 20.642 0 0 0-7.51-3.187 42.025 42.025 0 0 0-8.927-.923H16.225zm12.738 11.3h2.948a9.908 9.908 0 0 1 6.677 2.146 7.47 7.47 0 0 1 2.5 5.99q0 4.628-2.5 6.662T31.41 29.25h-2.446zM80.14 0a25.253 25.253 0 0 0-8.678 1.454 20.385 20.385 0 0 0-6.926 4.138 19.074 19.074 0 0 0-4.59 6.515 21.277 21.277 0 0 0-1.668 8.584 21.876 21.876 0 0 0 1.67 8.67 19.75 19.75 0 0 0 4.588 6.682 20.4 20.4 0 0 0 6.926 4.278 24.4 24.4 0 0 0 8.678 1.51 24.4 24.4 0 0 0 8.678-1.51 20.707 20.707 0 0 0 6.953-4.278 19.565 19.565 0 0 0 4.618-6.683 21.88 21.88 0 0 0 1.67-8.67 21.28 21.28 0 0 0-1.67-8.583 18.9 18.9 0 0 0-4.617-6.515 20.69 20.69 0 0 0-6.952-4.138A25.25 25.25 0 0 0 80.14 0zm-3.115 28.883a7.05 7.05 0 0 1-2.476-1.817 8.612 8.612 0 0 1-1.614-2.8 10.5 10.5 0 0 1-.584-3.58 10.1 10.1 0 0 1 .584-3.5 7.717 7.717 0 0 1 1.613-2.683 7.268 7.268 0 0 1 2.475-1.705 7.874 7.874 0 0 1 3.115-.615 7.677 7.677 0 0 1 3.088.615 7.664 7.664 0 0 1 2.472 1.714 7.522 7.522 0 0 1 1.644 2.688 10.093 10.093 0 0 1 .584 3.5 10.5 10.5 0 0 1-.584 3.58 8.375 8.375 0 0 1-1.64 2.8 7.42 7.42 0 0 1-2.477 1.816 7.38 7.38 0 0 1-3.088.643 7.57 7.57 0 0 1-3.116-.644zm28.21-27.765v11.24h9.678v28.353h13.24V12.36h9.68V1.117h-32.598z" fill="#fff"/><path d="M0 40.71h9.698v-9.748H0v9.75z" fill="#db1a3c"/></svg>