<svg xmlns="http://www.w3.org/2000/svg" width="202.677" height="60.671"><script xmlns=""/><path fill="#A6192E" d="M0 43.208h15.841v15.841H0z"/><path d="M25.359 59.049V1.622h21.413c4.542 0 8.882.446 13.018 1.338 4.137.892 7.787 2.433 10.95 4.623 3.163 2.19 5.69 5.097 7.584 8.719 1.892 3.623 2.839 8.192 2.839 13.708 0 5.029-.906 9.382-2.718 13.059-1.812 3.678-4.231 6.692-7.259 9.044-3.029 2.352-6.517 4.096-10.463 5.232-3.948 1.135-8.058 1.703-12.329 1.703H25.359zm18.574-41.042v24.415h3.569c4.542 0 8.03-.984 10.463-2.951s3.65-5.187 3.65-9.661c0-3.718-1.217-6.614-3.65-8.69-2.433-2.074-5.678-3.113-9.733-3.113h-4.299zm42.745 12.004c0-4.596.811-8.746 2.433-12.451 1.622-3.703 3.853-6.854 6.692-9.449 2.839-2.596 6.205-4.596 10.098-6.002C109.795.704 114.013 0 118.555 0s8.76.704 12.653 2.109c3.894 1.407 7.272 3.406 10.139 6.002 2.865 2.595 5.11 5.746 6.732 9.449 1.622 3.704 2.433 7.855 2.433 12.451 0 4.597-.811 8.788-2.433 12.572-1.622 3.786-3.867 7.016-6.732 9.693-2.867 2.677-6.245 4.745-10.139 6.205-3.893 1.46-8.111 2.19-12.653 2.19s-8.76-.73-12.653-2.19c-3.893-1.46-7.26-3.528-10.098-6.205-2.839-2.677-5.069-5.907-6.692-9.693-1.623-3.784-2.434-7.975-2.434-12.572zm20.521 0c0 1.893.284 3.623.851 5.191.568 1.569 1.351 2.92 2.353 4.056 1 1.135 2.202 2.015 3.609 2.636 1.405.622 2.92.933 4.542.933 1.622 0 3.123-.311 4.502-.933a10.795 10.795 0 003.609-2.636c1.026-1.136 1.825-2.487 2.393-4.056.568-1.568.852-3.298.852-5.191 0-1.838-.284-3.528-.852-5.069-.568-1.541-1.366-2.839-2.393-3.894a11.194 11.194 0 00-3.609-2.474c-1.379-.595-2.88-.892-4.502-.892-1.622 0-3.137.298-4.542.892-1.407.596-2.61 1.419-3.609 2.474-1.002 1.055-1.785 2.352-2.353 3.894-.567 1.541-.851 3.231-.851 5.069zm81.365 29.038h-19.305V17.926h-14.113V1.622h47.531v16.303h-14.113v41.124zM0 13.188v-3.075l5.498-3.098L0 6.712V1.447l15.841.676v4.543l-8.13 4.985 8.13 4.985v4.543L0 21.854v-5.265l5.498-.303L0 13.188zm15.841 8.892v6.033l-5.451 2.726 5.451 2.772v6.034L4.566 33.588H0V28.16l4.566-.023 11.275-6.057z" fill="#FFF"/><script xmlns=""/></svg>