<svg width="27" height="25" viewBox="0 0 27 25" fill="none" xmlns="http://www.w3.org/2000/svg">
<path d="M6 0.75V3H15V0.75C15 0.375 15.3281 0 15.75 0C16.125 0 16.5 0.375 16.5 0.75V3H18C19.6406 3 21 4.35938 21 6V7.5V9H20.25H19.5H16.5H1.5V21C1.5 21.8438 2.15625 22.5 3 22.5H13.875C14.3438 23.1094 14.8594 23.5781 15.4688 24H3C1.3125 24 0 22.6875 0 21V9V7.5V6C0 4.35938 1.3125 3 3 3H4.5V0.75C4.5 0.375 4.82812 0 5.25 0C5.625 0 6 0.375 6 0.75ZM3 4.5C2.15625 4.5 1.5 5.20312 1.5 6V7.5H19.5V6C19.5 5.20312 18.7969 4.5 18 4.5H3ZM15 17.25C15 19.1719 15.9844 20.8594 17.625 21.7969C19.2188 22.7812 21.2344 22.7812 22.875 21.7969C24.4688 20.8594 25.5 19.1719 25.5 17.25C25.5 15.375 24.4688 13.6875 22.875 12.75C21.2344 11.7656 19.2188 11.7656 17.625 12.75C15.9844 13.6875 15 15.375 15 17.25ZM27 17.25C27 19.6875 25.6875 21.8906 23.625 23.1094C21.5156 24.3281 18.9375 24.3281 16.875 23.1094C14.7656 21.8906 13.5 19.6875 13.5 17.25C13.5 14.8594 14.7656 12.6562 16.875 11.4375C18.9375 10.2188 21.5156 10.2188 23.625 11.4375C25.6875 12.6562 27 14.8594 27 17.25ZM21 14.25V16.5H23.25C23.625 16.5 24 16.875 24 17.25C24 17.6719 23.625 18 23.25 18H21V20.25C21 20.6719 20.625 21 20.25 21C19.8281 21 19.5 20.6719 19.5 20.25V18H17.25C16.8281 18 16.5 17.6719 16.5 17.25C16.5 16.875 16.8281 16.5 17.25 16.5H19.5V14.25C19.5 13.875 19.8281 13.5 20.25 13.5C20.625 13.5 21 13.875 21 14.25Z" fill="#E1234B"/>
</svg>
