<svg width="20" height="20" viewBox="0 0 20 20" fill="none" xmlns="http://www.w3.org/2000/svg">
<path d="M2.5 6C2.5 4.067 4.067 2.5 6 2.5H14C15.933 2.5 17.5 4.067 17.5 6V14C17.5 15.933 15.933 17.5 14 17.5H6C4.067 17.5 2.5 15.933 2.5 14V6Z" fill="#EEF0F4" stroke="#D6DAE2"/>
<path fill-rule="evenodd" clip-rule="evenodd" d="M14.6211 8.13441C14.8274 7.93744 14.8274 7.60802 14.6211 7.41105L14.0119 6.82954C13.8187 6.64512 13.5146 6.64511 13.3214 6.82954L9.34524 10.625C9.15203 10.8094 8.84797 10.8094 8.65476 10.625L6.67857 8.73863C6.48536 8.5542 6.18131 8.5542 5.9881 8.73863L5.3789 9.32014C5.17255 9.51711 5.17255 9.84652 5.3789 10.0435L7.66666 12.2273L8.48214 13.0057C8.77196 13.2823 9.22803 13.2823 9.51785 13.0057L10.3333 12.2273L14.6211 8.13441Z" fill="#D6DAE1"/>
</svg>
