<svg width="18" height="24" viewBox="0 0 18 24" fill="none" xmlns="http://www.w3.org/2000/svg">
<path d="M16.5 21V9H11.25C9.98438 9 9 8.01562 9 6.75V1.5H3C2.15625 1.5 1.5 2.20312 1.5 3V21C1.5 21.8438 2.15625 22.5 3 22.5H15C15.7969 22.5 16.5 21.8438 16.5 21ZM16.4531 7.5C16.4062 7.40625 16.3594 7.26562 16.2656 7.17188L10.8281 1.73438C10.7344 1.64062 10.5938 1.59375 10.5 1.54688V6.75C10.5 7.17188 10.8281 7.5 11.25 7.5H16.4531ZM0 3C0 1.35938 1.3125 0 3 0H10.3125C10.875 0 11.4844 0.28125 11.9062 0.703125L17.2969 6.09375C17.7188 6.51562 18 7.125 18 7.6875V21C18 22.6875 16.6406 24 15 24H3C1.3125 24 0 22.6875 0 21V3Z" fill="#E1234B"/>
</svg>
