<svg width="18" height="22" viewBox="0 0 18 22" fill="none" xmlns="http://www.w3.org/2000/svg">
<path d="M0.75 21.5C0.328125 21.5 0 21.1719 0 20.75C0 20.375 0.328125 20 0.75 20H17.25C17.625 20 18 20.375 18 20.75C18 21.1719 17.625 21.5 17.25 21.5H0.75ZM9.51562 16.8125C9.23438 17.0938 8.71875 17.0938 8.4375 16.8125L2.4375 10.8125C2.15625 10.5312 2.15625 10.0156 2.4375 9.73438C2.71875 9.45312 3.23438 9.45312 3.51562 9.73438L8.25 14.4688V9.5V1.25C8.25 0.875 8.57812 0.5 9 0.5C9.375 0.5 9.75 0.875 9.75 1.25V9.5V14.4688L14.4375 9.73438C14.7188 9.45312 15.2344 9.45312 15.5156 9.73438C15.7969 10.0156 15.7969 10.5312 15.5156 10.8125L9.51562 16.8125Z" fill="#E1234B"/>
</svg>
