<svg data-name="Layer 1" xmlns="http://www.w3.org/2000/svg" viewBox="0 0 35 35"><path d="M26.415 12.275c-.005-.012-.014-.02-.02-.032A10.336 10.336 0 0 0 7.154 17.5c0 .019.003.037.003.056l-.003.014c0 .008.004.015.005.024a10.333 10.333 0 0 0 19.232 5.17.465.465 0 0 0 .024-.04 10.268 10.268 0 0 0 1.426-5.13c0-.009.005-.016.005-.024l-.003-.014c0-.02.003-.037.003-.056a10.268 10.268 0 0 0-1.43-5.225zm-.75 9.76h-3.433a19.062 19.062 0 0 0 .505-3.965h4.08a9.276 9.276 0 0 1-1.151 3.965zM8.184 18.07h4.08a19.062 19.062 0 0 0 .505 3.965H9.335a9.275 9.275 0 0 1-1.152-3.965zm1.151-5.105h3.434a19.147 19.147 0 0 0-.509 4.105H8.176a9.275 9.275 0 0 1 1.158-4.105zm8.666-1V8.228c1.17.318 2.207 1.728 2.894 3.737zm3.196 1a18.051 18.051 0 0 1 .545 4.105h-3.74v-4.105zM17 8.228v3.737h-2.893c.686-2.009 1.724-3.42 2.893-3.737zm0 4.737v4.105h-3.74a18.044 18.044 0 0 1 .546-4.105zm-3.738 5.105H17v3.965h-3.195a17.983 17.983 0 0 1-.543-3.965zM17 23.035v3.737c-1.169-.318-2.207-1.728-2.893-3.737zm1 3.737v-3.737h2.894c-.687 2.009-1.724 3.42-2.894 3.737zm0-4.737V18.07h3.738a17.988 17.988 0 0 1-.543 3.965zm4.74-4.965a19.147 19.147 0 0 0-.508-4.105h3.434a9.276 9.276 0 0 1 1.158 4.105zm2.274-5.105h-3.06a9.549 9.549 0 0 0-1.797-3.421 9.366 9.366 0 0 1 4.857 3.421zm-10.171-3.42a9.548 9.548 0 0 0-1.798 3.42H9.986a9.368 9.368 0 0 1 4.857-3.42zm-4.856 14.49h3.059a9.549 9.549 0 0 0 1.797 3.42 9.368 9.368 0 0 1-4.856-3.42zm10.17 3.421a9.55 9.55 0 0 0 1.797-3.421h3.06a9.367 9.367 0 0 1-4.857 3.421z" fill="#2c2a29"/></svg>