<svg width="12" height="13" viewBox="0 0 12 13" fill="none" xmlns="http://www.w3.org/2000/svg">
<path d="M7.66406 2.51562L9 2L9.49219 0.6875C9.51562 0.570312 9.63281 0.5 9.75 0.5C9.84375 0.5 9.96094 0.570312 9.98438 0.6875L10.5 2L11.8125 2.51562C11.9297 2.53906 12 2.65625 12 2.75C12 2.86719 11.9297 2.98438 11.8125 3.00781L10.5 3.5L9.98438 4.83594C9.96094 4.92969 9.84375 5 9.75 5C9.63281 5 9.51562 4.92969 9.49219 4.83594L9 3.5L7.66406 3.00781C7.57031 2.98438 7.5 2.86719 7.5 2.75C7.5 2.65625 7.57031 2.53906 7.66406 2.51562ZM4.80469 2.23438L6.02344 4.90625L8.69531 6.125C8.83594 6.19531 8.92969 6.33594 8.92969 6.47656C8.92969 6.61719 8.83594 6.75781 8.69531 6.80469L6.02344 8.04688L4.80469 10.7188C4.73438 10.8594 4.59375 10.9531 4.45312 10.9531C4.3125 10.9531 4.17188 10.8594 4.125 10.7188L2.88281 8.04688L0.210938 6.82812C0.0703125 6.75781 0 6.61719 0 6.47656C0 6.33594 0.0703125 6.19531 0.210938 6.125L2.88281 4.90625L4.125 2.23438C4.17188 2.09375 4.3125 2 4.45312 2C4.59375 2 4.73438 2.09375 4.80469 2.23438ZM9 9.5L9.49219 8.1875C9.51562 8.07031 9.63281 8 9.75 8C9.84375 8 9.96094 8.07031 9.98438 8.1875L10.5 9.5L11.8125 10.0156C11.9297 10.0391 12 10.1562 12 10.25C12 10.3672 11.9297 10.4844 11.8125 10.5078L10.5 11L9.98438 12.3359C9.96094 12.4297 9.84375 12.5 9.75 12.5C9.63281 12.5 9.51562 12.4297 9.49219 12.3359L9 11L7.66406 10.5078C7.57031 10.4844 7.5 10.3672 7.5 10.25C7.5 10.1562 7.57031 10.0391 7.66406 10.0156L9 9.5Z" fill="#F41E5A"/>
</svg>
