<svg width="26" height="24" viewBox="0 0 26 24" fill="none" xmlns="http://www.w3.org/2000/svg">
<path d="M13 1.5C9.20312 1.5 5.78125 3.51562 3.90625 6.75C1.98438 10.0312 1.98438 14.0156 3.90625 17.25C5.78125 20.5312 9.20312 22.5 13 22.5C16.75 22.5 20.1719 20.5312 22.0469 17.25C23.9688 14.0156 23.9688 10.0312 22.0469 6.75C20.1719 3.51562 16.75 1.5 13 1.5ZM13 24C8.6875 24 4.75 21.75 2.59375 18C0.4375 14.2969 0.4375 9.75 2.59375 6C4.75 2.29688 8.6875 0 13 0C17.2656 0 21.2031 2.29688 23.3594 6C25.5156 9.75 25.5156 14.2969 23.3594 18C21.2031 21.75 17.2656 24 13 24ZM13 15C12.1562 15 11.5 15.7031 11.5 16.5C11.5 17.3438 12.1562 18 13 18C13.7969 18 14.5 17.3438 14.5 16.5C14.5 15.7031 13.7969 15 13 15ZM13 19.5C11.3125 19.5 10 18.1875 10 16.5C10 15.1406 10.9375 13.9688 12.25 13.5938V4.5C12.25 4.125 12.5781 3.75 13 3.75C13.375 3.75 13.75 4.125 13.75 4.5V13.5938C15.0156 13.9688 16 15.1406 16 16.5C16 18.1875 14.6406 19.5 13 19.5ZM7.75 7.875C7.09375 7.875 6.625 7.40625 6.625 6.75C6.625 6.14062 7.09375 5.625 7.75 5.625C8.35938 5.625 8.875 6.14062 8.875 6.75C8.875 7.40625 8.35938 7.875 7.75 7.875ZM6.625 12C6.625 12.6562 6.10938 13.125 5.5 13.125C4.84375 13.125 4.375 12.6562 4.375 12C4.375 11.3906 4.84375 10.875 5.5 10.875C6.10938 10.875 6.625 11.3906 6.625 12ZM20.5 13.125C19.8438 13.125 19.375 12.6562 19.375 12C19.375 11.3906 19.8438 10.875 20.5 10.875C21.1094 10.875 21.625 11.3906 21.625 12C21.625 12.6562 21.1094 13.125 20.5 13.125ZM19.375 6.75C19.375 7.40625 18.8594 7.875 18.25 7.875C17.5938 7.875 17.125 7.40625 17.125 6.75C17.125 6.14062 17.5938 5.625 18.25 5.625C18.8594 5.625 19.375 6.14062 19.375 6.75Z" fill="#E1234B"/>
</svg>
